<?xml version="1.0" encoding="iso-8859-1"?>
<!-- Generator: Adobe Illustrator 19.0.0, SVG Export Plug-In . SVG Version: 6.00 Build 0)  -->
<svg version="1.1" id="Capa_1" xmlns="http://www.w3.org/2000/svg" xmlns:xlink="http://www.w3.org/1999/xlink" x="0px" y="0px"
	 viewBox="0 0 436.762 436.762" style="enable-background:new 0 0 436.762 436.762;" xml:space="preserve">
<circle style="fill:#FFE600;" cx="141.855" cy="170.526" r="40.96"/>
<path style="fill:#602F75;" d="M141.853,218.309c-26.349,0-47.787-21.439-47.787-47.787s21.437-47.787,47.787-47.787
	s47.787,21.439,47.787,47.787S168.202,218.309,141.853,218.309z M141.853,136.389c-18.819,0-34.133,15.314-34.133,34.133
	s15.314,34.133,34.133,34.133c18.819,0,34.133-15.314,34.133-34.133S160.673,136.389,141.853,136.389z"/>
<path style="fill:#FFE600;" d="M87.233,245.616c-1.3,0-2.616-0.374-3.78-1.147c-3.137-2.094-3.983-6.327-1.893-9.467l13.653-20.48
	c2.087-3.14,6.327-3.98,9.467-1.893c3.137,2.094,3.983,6.327,1.893,9.467l-13.653,20.48
	C91.602,244.549,89.44,245.616,87.233,245.616z"/>
<path style="fill:#FFFFFF;" d="M174.321,17.062c5.651-9.786,18.178-13.131,27.964-7.482L255.5,40.304
	c9.793,5.654,13.153,18.169,7.503,27.957l-30.73,53.226l-88.682-51.2L174.321,17.062z"/>
<g>
	<path style="fill:#602F75;" d="M232.272,128.316c-1.186,0-2.367-0.314-3.413-0.913l-88.68-51.2c-3.267-1.886-4.383-6.06-2.5-9.327
		l30.727-53.226l0,0c3.647-6.313,9.533-10.827,16.584-12.713c7.04-1.881,14.401-0.913,20.71,2.734l53.214,30.72
		c6.313,3.647,10.834,9.533,12.723,16.573c1.889,7.047,0.923,14.401-2.72,20.714l-30.73,53.228c-0.906,1.567-2.396,2.714-4.147,3.18
		C233.458,128.236,232.866,128.316,232.272,128.316z M152.919,67.789l76.853,44.373l27.317-47.314
		c1.819-3.154,2.304-6.827,1.36-10.346c-0.947-3.519-3.203-6.467-6.364-8.286l-53.217-30.72c-3.157-1.833-6.83-2.313-10.356-1.367
		c-3.519,0.94-6.46,3.193-8.281,6.347L152.919,67.789z"/>
	<path style="fill:#602F75;" d="M327.608,388.462c-3.77,0-6.827-3.053-6.827-6.827V149.528c0-39.554-25.841-68.267-61.44-68.267
		c-3.77,0-6.827-3.053-6.827-6.827s3.057-6.827,6.827-6.827c43.513,0,75.093,34.454,75.093,81.92v232.107
		C334.435,385.409,331.379,388.462,327.608,388.462z"/>
</g>
<path style="fill:#EA3457;" d="M242.814,226.108c31.104-53.874,12.646-122.764-41.23-153.87s-122.764-12.645-153.87,41.23
	L242.814,226.108z"/>
<path style="fill:#602F75;" d="M242.806,232.937c-1.157,0-2.33-0.294-3.407-0.913L44.302,119.382c-3.267-1.886-4.383-6.06-2.5-9.327
	c32.937-57.047,106.143-76.667,163.197-43.733c27.636,15.961,47.403,41.719,55.659,72.547c8.26,30.826,4.019,63.02-11.933,90.653
	C247.46,231.716,245.166,232.937,242.806,232.937z M57.23,111.082l182.9,105.593c11.44-23.067,14.066-49.179,7.344-74.274
	c-7.316-27.3-24.823-50.12-49.3-64.253C149.642,50.136,87.88,65.062,57.23,111.082z"/>
<rect x="293.475" y="361.16" style="fill:#00E7FF;" width="68.267" height="34.647"/>
<path style="fill:#602F75;" d="M361.742,402.629h-68.267c-3.77,0-6.827-3.053-6.827-6.827v-34.647c0-3.773,3.057-6.827,6.827-6.827
	h68.267c3.77,0,6.827,3.053,6.827,6.827v34.647C368.568,399.576,365.512,402.629,361.742,402.629z M300.302,388.976h54.613v-20.994
	h-54.613V388.976z"/>
<polyline style="fill:#FFFFFF;" points="293.477,395.804 389.048,395.804 389.048,429.937 122.808,429.937 122.808,395.804 
	245.185,395.804 "/>
<path style="fill:#602F75;" d="M389.048,436.762h-266.24c-3.77,0-6.827-3.053-6.827-6.827v-34.133c0-3.773,3.057-6.827,6.827-6.827
	h122.373c3.77,0,6.827,3.053,6.827,6.827s-3.057,6.827-6.827,6.827H129.635v20.48h252.587v-20.48h-88.747
	c-3.77,0-6.827-3.053-6.827-6.827s3.057-6.827,6.827-6.827h95.573c3.77,0,6.827,3.053,6.827,6.827v34.133
	C395.875,433.709,392.819,436.762,389.048,436.762z"/>
<path style="fill:#FFE600;" d="M84.4,204.656H59.933c-3.77,0-6.827-3.053-6.827-6.827s3.057-6.827,6.827-6.827H84.4
	c3.77,0,6.827,3.053,6.827,6.827S88.17,204.656,84.4,204.656z"/>
<path style="fill:#FFE600;" d="M128.2,263.242c-3.77,0-6.827-3.053-6.827-6.827v-24.453c0-3.773,3.057-6.827,6.827-6.827
	c3.77,0,6.827,3.053,6.827,6.827v24.453C135.026,260.189,131.97,263.242,128.2,263.242z"/>
<g>
</g>
<g>
</g>
<g>
</g>
<g>
</g>
<g>
</g>
<g>
</g>
<g>
</g>
<g>
</g>
<g>
</g>
<g>
</g>
<g>
</g>
<g>
</g>
<g>
</g>
<g>
</g>
<g>
</g>
</svg>
