<svg width="437" height="437" viewBox="0 0 437 437" fill="none" xmlns="http://www.w3.org/2000/svg">
<g clip-path="url(#clip0)">
<path d="M141.853 218.309C115.504 218.309 94.066 196.87 94.066 170.522C94.066 144.174 115.503 122.735 141.853 122.735C168.203 122.735 189.64 144.174 189.64 170.522C189.64 196.87 168.202 218.309 141.853 218.309ZM141.853 136.389C123.034 136.389 107.72 151.703 107.72 170.522C107.72 189.341 123.034 204.655 141.853 204.655C160.672 204.655 175.986 189.341 175.986 170.522C175.986 151.703 160.673 136.389 141.853 136.389Z" fill="#602F75"/>
<path d="M174.321 17.0619C179.972 7.27591 192.499 3.93091 202.285 9.57991L255.5 40.3039C265.293 45.9579 268.653 58.4729 263.003 68.2609L232.273 121.487L143.591 70.2869L174.321 17.0619Z" fill="white"/>
<path d="M232.272 128.316C231.086 128.316 229.905 128.002 228.859 127.403L140.179 76.2027C136.912 74.3167 135.796 70.1427 137.679 66.8757L168.406 13.6497C172.053 7.33665 177.939 2.82265 184.99 0.936653C192.03 -0.944347 199.391 0.023653 205.7 3.67065L258.914 34.3907C265.227 38.0377 269.748 43.9237 271.637 50.9637C273.526 58.0107 272.56 65.3647 268.917 71.6777L238.187 124.906C237.281 126.473 235.791 127.62 234.04 128.086C233.458 128.236 232.866 128.316 232.272 128.316ZM152.919 67.7887L229.772 112.162L257.089 64.8477C258.908 61.6937 259.393 58.0207 258.449 54.5017C257.502 50.9827 255.246 48.0347 252.085 46.2157L198.868 15.4957C195.711 13.6627 192.038 13.1827 188.512 14.1287C184.993 15.0687 182.052 17.3217 180.231 20.4757L152.919 67.7887Z" fill="#602F75"/>
<path d="M327.608 388.461C323.838 388.461 320.781 385.408 320.781 381.634V149.527C320.781 109.973 294.94 81.2604 259.341 81.2604C255.571 81.2604 252.514 78.2074 252.514 74.4334C252.514 70.6594 255.571 67.6064 259.341 67.6064C302.854 67.6064 334.434 102.06 334.434 149.526V381.633C334.435 385.408 331.379 388.461 327.608 388.461Z" fill="#602F75"/>
<path d="M242.814 226.108C273.918 172.234 255.46 103.344 201.584 72.238C147.708 41.132 78.82 59.593 47.714 113.468L242.814 226.108Z" fill="#EA3457"/>
<path d="M242.806 232.937C241.649 232.937 240.476 232.643 239.399 232.024L44.302 119.382C41.035 117.496 39.919 113.322 41.802 110.055C74.739 53.0078 147.945 33.3878 204.999 66.3218C232.635 82.2828 252.402 108.041 260.658 138.869C268.918 169.695 264.677 201.889 248.725 229.522C247.46 231.716 245.166 232.937 242.806 232.937ZM57.23 111.082L240.13 216.675C251.57 193.608 254.196 167.496 247.474 142.401C240.158 115.101 222.651 92.2808 198.174 78.1478C149.642 50.1358 87.88 65.0618 57.23 111.082Z" fill="#602F75"/>
<path d="M361.742 361.16H293.475V395.807H361.742V361.16Z" fill="#00E7FF"/>
<path d="M361.742 402.629H293.475C289.705 402.629 286.648 399.576 286.648 395.802V361.155C286.648 357.382 289.705 354.328 293.475 354.328H361.742C365.512 354.328 368.569 357.381 368.569 361.155V395.802C368.568 399.576 365.512 402.629 361.742 402.629ZM300.302 388.976H354.915V367.982H300.302V388.976Z" fill="#602F75"/>
<path d="M293.477 395.804H389.048V429.937H122.808V395.804H245.185" fill="white"/>
<path d="M389.048 436.762H122.808C119.038 436.762 115.981 433.709 115.981 429.935V395.802C115.981 392.029 119.038 388.975 122.808 388.975H245.181C248.951 388.975 252.008 392.028 252.008 395.802C252.008 399.576 248.951 402.629 245.181 402.629H129.635V423.109H382.222V402.629H293.475C289.705 402.629 286.648 399.576 286.648 395.802C286.648 392.028 289.705 388.975 293.475 388.975H389.048C392.818 388.975 395.875 392.028 395.875 395.802V429.935C395.875 433.709 392.819 436.762 389.048 436.762Z" fill="#602F75"/>
</g>
<defs>
<clipPath id="clip0">
<rect width="436.762" height="436.762" fill="white"/>
</clipPath>
</defs>
</svg>
